<svg width="20" height="20" viewBox="0 0 20 20" fill="none" xmlns="http://www.w3.org/2000/svg">
<path fill-rule="evenodd" clip-rule="evenodd" d="M3.76471 0C2.66014 0 1.76471 0.89543 1.76471 2V8C1.76471 9.10457 2.66014 10 3.76471 10H14.4706C15.5752 10 16.4706 9.10457 16.4706 8V2C16.4706 0.895431 15.5752 0 14.4706 0H3.76471ZM6.76473 7.64702C8.22667 7.64702 9.41179 6.46189 9.41179 4.99996C9.41179 3.53803 8.22667 2.35291 6.76473 2.35291C5.3028 2.35291 4.11768 3.53803 4.11768 4.99996C4.11768 6.46189 5.3028 7.64702 6.76473 7.64702Z" fill="#003854"/>
<path d="M6.47058 5.00005C6.47058 4.83761 6.60226 4.70593 6.7647 4.70593H9.41176V5.29417H6.7647C6.60226 5.29417 6.47058 5.16249 6.47058 5.00005Z" fill="#003854"/>
<path d="M16.4706 3.52942H20V6.4706H16.4706V3.52942Z" fill="#003854"/>
<path d="M10.5882 10H7.64706V12.3529H4.52941C3.97713 12.3529 3.52941 12.8007 3.52941 13.3529V13.5294H0V18.8235H3.52941V19C3.52941 19.5523 3.97713 20 4.52941 20H6.64706C7.19934 20 7.64706 19.5523 7.64706 19V18.8235H10.5882V19C10.5882 19.5523 11.036 20 11.5882 20H13.7059C14.2582 20 14.7059 19.5523 14.7059 19V18.8235H18.2353V13.5294H14.7059V13.3529C14.7059 12.8007 14.2582 12.3529 13.7059 12.3529H10.5882V10Z" fill="#003854"/>
</svg>
